HIERARCHY
ROOT Hips
{
	OFFSET 0.00000 0.00000 0.00000
	CHANNELS 6 Xposition Yposition Zposition Zrotation Yrotation Xrotation 
	JOINT LHipJoint
	{
		OFFSET 0 0 0
		CHANNELS 3 Zrotation Yrotation Xrotation
		JOINT LeftUpLeg
		{
			OFFSET 1.33213 -1.58186 0.78596
			CHANNELS 3 Zrotation Yrotation Xrotation
			JOINT LeftLeg
			{
				OFFSET 2.29717 -6.31144 0.00000
				CHANNELS 3 Zrotation Yrotation Xrotation
				JOINT LeftFoot
				{
					OFFSET 2.38430 -6.55082 0.00000
					CHANNELS 3 Zrotation Yrotation Xrotation
					JOINT LeftToeBase
					{
						OFFSET 0.11863 -0.32594 1.77568
						CHANNELS 3 Zrotation Yrotation Xrotation
						End Site
						{
							OFFSET 0.00000 -0.00000 0.91633
						}
					}
				}
			}
		}
	}
	JOINT RHipJoint
	{
		OFFSET 0 0 0
		CHANNELS 3 Zrotation Yrotation Xrotation
		JOINT RightUpLeg
		{
			OFFSET -1.41575 -1.58186 0.78596
			CHANNELS 3 Zrotation Yrotation Xrotation
			JOINT RightLeg
			{
				OFFSET -2.42012 -6.64922 0.00000
				CHANNELS 3 Zrotation Yrotation Xrotation
				JOINT RightFoot
				{
					OFFSET -2.47254 -6.79327 0.00000
					CHANNELS 3 Zrotation Yrotation Xrotation
					JOINT RightToeBase
					{
						OFFSET -0.15219 -0.41813 1.93430
						CHANNELS 3 Zrotation Yrotation Xrotation
						End Site
						{
							OFFSET -0.00000 -0.00000 0.99984
						}
					}
				}
			}
		}
	}
	JOINT LowerBack
	{
		OFFSET 0 0 0
		CHANNELS 3 Zrotation Yrotation Xrotation
		JOINT Spine
		{
			OFFSET -0.04717 2.09389 -0.14516
			CHANNELS 3 Zrotation Yrotation Xrotation
			JOINT Spine1
			{
				OFFSET 0.02825 2.09433 -0.11325
				CHANNELS 3 Zrotation Yrotation Xrotation
				JOINT Neck
				{
					OFFSET 0 0 0
					CHANNELS 3 Zrotation Yrotation Xrotation
					JOINT Neck1
					{
						OFFSET -0.01210 1.39029 0.12448
						CHANNELS 3 Zrotation Yrotation Xrotation
						JOINT Head
						{
							OFFSET 0.09492 1.38365 0.14559
							CHANNELS 3 Zrotation Yrotation Xrotation
							End Site
							{
								OFFSET 0.03402 1.40343 0.03708
							}
						}
					}
				}
				JOINT LeftShoulder
				{
					OFFSET 0 0 0
					CHANNELS 3 Zrotation Yrotation Xrotation
					JOINT LeftArm
					{
						OFFSET 2.83352 1.10671 -0.20481
						CHANNELS 3 Zrotation Yrotation Xrotation
						JOINT LeftForeArm
						{
							OFFSET 4.77195 -0.00000 -0.00000
							CHANNELS 3 Zrotation Yrotation Xrotation
							JOINT LeftHand
							{
								OFFSET 2.98444 -0.00000 0.00000
								CHANNELS 3 Zrotation Yrotation Xrotation
								JOINT LeftFingerBase
								{
									OFFSET 0 0 0
									CHANNELS 3 Zrotation Yrotation Xrotation
									JOINT LeftHandIndex1
									{
										OFFSET 0.99228 -0.00000 0.00000
										CHANNELS 3 Zrotation Yrotation Xrotation
										End Site
										{
											OFFSET 0.80001 -0.00000 0.00000
										}
									}
								}
								JOINT LThumb
								{
									OFFSET 0 0 0
									CHANNELS 3 Zrotation Yrotation Xrotation
									End Site
									{
										OFFSET 0.81222 -0.00000 0.81222
									}
								}
							}
						}
					}
				}
				JOINT RightShoulder
				{
					OFFSET 0 0 0
					CHANNELS 3 Zrotation Yrotation Xrotation
					JOINT RightArm
					{
						OFFSET -3.23760 1.11106 0.06723
						CHANNELS 3 Zrotation Yrotation Xrotation
						JOINT RightForeArm
						{
							OFFSET -4.62052 -0.00000 0.00000
							CHANNELS 3 Zrotation Yrotation Xrotation
							JOINT RightHand
							{
								OFFSET -2.95332 -0.00000 0.00000
								CHANNELS 3 Zrotation Yrotation Xrotation
								JOINT RightFingerBase
								{
									OFFSET 0 0 0
									CHANNELS 3 Zrotation Yrotation Xrotation
									JOINT RightHandIndex1
									{
										OFFSET -0.99096 -0.00000 0.00000
										CHANNELS 3 Zrotation Yrotation Xrotation
										End Site
										{
											OFFSET -0.79893 -0.00000 0.00000
										}
									}
								}
								JOINT RThumb
								{
									OFFSET 0 0 0
									CHANNELS 3 Zrotation Yrotation Xrotation
									End Site
									{
										OFFSET -0.81113 -0.00000 0.81113
									}
								}
							}
						}
					}
				}
			}
		}
	}
}
MOTION
Frames: 10
Frame Time: .0083333
-2.969 15.9235 47.9976 0 0 0 0 0 0 -21 0 0 0 0 0 0 0 0 0 0 0 0 0 0 21 0 0 0 0 0 0 0 0 0 0 0 0 0 0 0 0 0 0 0 0 0 0 -16 0 0 21 0 0 11 0 0 0 -8 0 0 0 0 0 0 0 0 0 0 0 0 0 0 0 0 0 0 0 0 8 0 0 0 0 0 0 0 0 0 0 0 0 0 0 0 0 0
-2.9690 15.9235 47.9976 -177.3830 -8.3729 -172.7680 0.0000 0.0000 0.0000 -19.3722 -1.8441 6.8041 0.0000 -0.0000 -0.0000 -0.0632 -5.5265 -1.4714 0.7254 5.4422 15.1741 0.0000 0.0000 0.0000 18.2048 6.4501 -30.0820 -2.2649 -9.3974 27.0465 0.2378 12.8391 -5.4797 -0.0595 -1.5735 4.3285 -3.5984 -0.9978 -9.5103 2.3509 -1.0932 0.9761 4.3450 -0.7251 6.4917 -6.7204 -5.3400 3.4277 8.9457 -7.1624 -5.8334 4.3334 -3.7315 -1.8872 0.0000 -0.0000 0.0000 -93.5468 -0.3343 0.5953 8.2158 -13.9020 -1.0033 -0.0000 -0.0000 37.0566 7.0238 9.1462 1.1219 -7.1250 0.0000 -0.0000 -17.0823 38.6387 2.7728 0.0000 -0.0000 0.0000 90.6428 -4.4398 1.9846 -13.6691 22.2598 -2.7015 0.0000 0.0000 34.6542 -7.4515 -6.8866 0.8985 7.1250 -0.0000 -0.0000 16.1949 -36.4881 3.5039
-2.9877 15.9259 47.9862 -177.7610 -8.8387 -172.3240 0.0000 0.0000 0.0000 -19.7914 -2.4685 6.5462 0.0000 0.0000 0.0000 -0.0566 -5.6738 -1.9741 0.6952 5.3301 14.8524 0.0000 0.0000 0.0000 17.6506 6.1780 -30.5943 -2.3007 -9.4662 27.2650 0.2578 13.1376 -5.4601 -0.0862 -1.8940 5.2128 -3.7998 -1.4096 -9.8334 2.3282 -1.6069 0.9674 4.3529 -0.9890 6.7259 -6.9797 -5.1666 3.3539 9.1260 -6.9212 -6.6134 4.4735 -3.6229 -2.1415 0.0000 -0.0000 0.0000 -93.5690 -0.6098 3.8864 8.8846 -14.9763 -1.1701 -0.0000 -0.0000 34.6460 7.2401 8.5688 1.0844 -7.1250 0.0000 -0.0000 -16.7593 38.0986 2.9475 0.0000 -0.0000 0.0000 90.4490 -4.1579 0.3891 -13.2882 21.7080 -2.5589 0.0000 0.0000 36.3115 -7.7978 -4.5416 0.6213 7.1250 -0.0000 -0.0000 15.4321 -34.2319 4.2068
-3.0092 15.9284 47.9692 -178.2370 -9.3154 -172.0100 0.0000 0.0000 0.0000 -20.3336 -3.0528 6.4755 0.0000 0.0000 0.0000 -0.0502 -5.8683 -2.4632 0.7382 5.4889 15.3085 0.0000 0.0000 0.0000 17.0606 5.6185 -31.0454 -2.3434 -9.5474 27.5232 0.2698 13.4236 -5.5704 -0.0658 -1.6556 4.5549 -3.9650 -1.7327 -10.0725 2.1322 -1.9924 0.9389 4.1723 -1.1805 6.8716 -6.8602 -5.0972 3.3209 9.5278 -6.7779 -7.2496 4.1451 -3.5962 -2.1086 0.0000 0.0000 0.0000 -93.3527 -0.9281 6.2731 9.3438 -15.7067 -1.2916 -0.0000 -0.0000 33.5397 8.0522 8.5288 1.2019 -7.1250 0.0000 -0.0000 -16.0762 38.1177 2.8116 0.0000 0.0000 0.0000 90.5737 -4.1623 -0.4022 -13.1196 21.4623 -2.4969 0.0000 0.0000 37.1631 -8.2189 -3.6150 0.5218 7.1250 -0.0000 -0.0000 14.9251 -33.3475 4.3912
-3.0293 15.9337 47.9542 -178.5230 -9.8992 -171.5530 0.0000 0.0000 0.0000 -20.6292 -3.7951 6.2343 0.0000 -0.0000 -0.0000 -0.0367 -6.1625 -3.2328 0.8312 5.8164 16.2527 0.0000 0.0000 0.0000 16.6992 5.0763 -31.6308 -2.3688 -9.5954 27.6763 0.2564 13.4189 -5.7872 -0.0063 -0.5106 1.4030 -3.7819 -1.9203 -10.2325 1.7852 -2.2503 0.2908 3.6594 -1.2739 6.2762 -6.5256 -5.0444 5.1879 9.6810 -6.7258 -7.9383 4.2188 -3.6252 -2.6311 0.0000 0.0000 0.0000 -92.7240 -0.0380 8.8352 9.9225 -16.6182 -1.4527 -0.0000 -0.0000 31.9483 8.9853 5.5625 0.8781 -7.1250 0.0000 -0.0000 -14.6726 35.2863 3.5991 0.0000 0.0000 0.0000 91.1526 -5.4894 -0.9432 -13.1360 21.4861 -2.5029 0.0000 0.0000 36.9427 -8.1484 -4.4972 0.6432 7.1250 -0.0000 -0.0000 15.1431 -34.2049 4.1334
-3.0366 15.9246 47.9545 -178.4010 -10.5600 -171.8190 0.0000 0.0000 0.0000 -20.4571 -4.3369 6.6074 0.0000 -0.0000 -0.0000 -0.0178 -6.4665 -4.0526 0.9287 6.1391 17.1887 0.0000 0.0000 0.0000 16.7955 4.7760 -31.3709 -2.3806 -9.6175 27.7467 0.2112 13.0478 -6.1419 -0.0018 -0.2743 0.7538 -3.4618 -2.2365 -9.5540 1.7805 -2.7253 0.3407 3.4158 -1.4910 5.9743 -6.5523 -4.9974 4.6734 9.8161 -6.6483 -7.9312 4.2453 -3.5880 -2.5443 -0.0000 -0.0000 0.0000 -92.2023 -3.9032 2.4188 6.9531 -11.8420 -0.7220 -0.0000 -0.0000 38.8383 11.3407 4.1777 0.8371 -7.1250 0.0000 -0.0000 -12.5228 34.0313 3.4393 -0.0000 -0.0000 0.0000 91.2532 -5.3593 -1.3008 -12.9487 21.2120 -2.4347 0.0000 0.0000 36.6412 -7.4354 -7.1317 0.9283 7.1250 -0.0000 -0.0000 16.2625 -36.7241 3.4221
-3.0346 15.9210 47.9688 -178.0970 -10.4735 -171.2820 0.0000 0.0000 0.0000 -20.0652 -4.4851 5.8570 0.0000 0.0000 0.0000 -0.0199 -6.4003 -3.9418 0.9313 6.1475 17.2129 0.0000 0.0000 0.0000 17.0433 5.2297 -31.9866 -2.3727 -9.6026 27.6993 0.1993 12.7955 -6.0838 -0.0005 0.1464 -0.4022 -3.0631 -2.3066 -9.7465 1.8497 -2.8649 0.4150 3.2346 -1.5528 6.1573 -6.6604 -5.0066 3.4017 10.0611 -6.6334 -7.7554 4.2896 -3.5724 -2.2700 0.0000 0.0000 0.0000 -92.2863 -1.7329 10.9611 10.6780 -17.7930 -1.6762 -0.0000 -0.0000 29.6347 9.1861 5.5437 0.8950 -7.1250 0.0000 -0.0000 -14.5061 35.2784 3.5589 0.0000 0.0000 0.0000 91.3088 -4.6765 -1.7490 -12.6653 20.7949 -2.3331 0.0000 0.0000 36.7936 -7.4237 -7.0541 0.9167 7.1250 -0.0000 -0.0000 16.2547 -36.6484 3.4516
-3.0379 15.9199 47.9650 -177.8110 -10.1996 -171.2030 0.0000 0.0000 0.0000 -19.7397 -4.6727 4.5470 0.0155 0.8050 2.2125 -0.0084 -7.2186 -4.8613 0.8900 6.0133 16.8231 0.0000 0.0000 0.0000 17.3724 5.4253 -32.0706 -2.3571 -9.5733 27.6056 0.2063 12.8376 -6.0107 -0.0046 0.4380 -1.2034 -2.6567 -2.1858 -9.6912 1.8002 -2.7501 0.3946 2.9730 -1.4815 6.0719 -6.6089 -4.9222 3.2470 10.3353 -6.5023 -8.1810 4.3700 -3.5341 -2.3728 0.0000 -0.0000 0.0000 -92.0118 -2.3225 11.7332 11.0097 -18.3031 -1.7790 -0.0000 -0.0000 28.3760 9.2183 4.6691 0.7569 -7.1250 0.0000 -0.0000 -14.3163 34.4225 3.8170 0.0000 -0.0000 0.0000 91.5594 -4.6891 -2.9006 -12.3463 20.3220 -2.2211 0.0000 0.0000 37.9770 -7.5175 -7.1392 0.9396 7.1250 -0.0000 -0.0000 16.1970 -36.7365 3.4023
-3.0461 15.9199 47.9479 -177.5590 -9.9110 -171.2260 0.0000 0.0000 0.0000 -19.5058 -4.5741 3.9246 0.0373 1.2469 3.4283 0.0019 -7.7060 -5.4414 0.8843 5.9947 16.7689 0.0000 0.0000 0.0000 17.6924 5.4436 -32.0274 -2.3426 -9.5458 27.5182 0.2306 13.0607 -5.8359 -0.0085 0.5948 -1.6345 -2.4056 -2.1371 -9.7068 1.8826 -2.7211 0.4288 2.9213 -1.4624 6.1066 -6.7442 -4.7931 3.2260 10.4865 -6.3235 -8.6690 4.4491 -3.4629 -2.5190 -0.0000 0.0000 0.0000 -92.0302 -2.9069 12.1340 11.4203 -18.9297 -1.9101 -0.0000 -0.0000 26.4863 8.5398 4.1372 0.6207 -7.1250 0.0000 -0.0000 -14.7635 33.8711 4.1472 -0.0000 0.0000 0.0000 91.5042 -4.6088 -4.5308 -11.9516 19.7321 -2.0859 0.0000 0.0000 40.0248 -7.1086 -7.0688 0.8792 7.1250 -0.0000 -0.0000 16.5155 -36.6430 3.5131
-3.0562 15.9213 47.9286 -177.5050 -9.6694 -171.3070 0.0000 0.0000 0.0000 -19.5315 -4.1289 4.3749 0.0246 1.0134 2.7856 -0.0068 -7.3682 -5.0076 1.0883 6.6300 18.6237 0.0000 0.0000 0.0000 17.7938 5.3641 -31.9369 -2.3421 -9.5450 27.5155 0.2681 13.3709 -5.5403 -0.0095 0.6305 -1.7327 -2.3918 -2.1600 -9.6242 1.9608 -2.7607 0.4395 2.9921 -1.4833 6.0776 -6.9305 -4.6171 3.3616 10.5776 -6.0894 -9.1670 4.5230 -3.3614 -2.7003 -0.0000 -0.0000 0.0000 -92.1337 -3.3323 12.3660 11.8978 -19.6512 -2.0678 -0.0000 -0.0000 24.3864 7.4307 3.9076 0.5092 -7.1250 0.0000 -0.0000 -15.6047 33.5994 4.5054 -0.0000 -0.0000 0.0000 91.3432 -4.6060 -5.8884 -11.6012 19.2039 -1.9691 0.0000 0.0000 41.6410 -6.3563 -7.2258 0.8027 7.1250 -0.0000 -0.0000 17.1655 -36.7470 3.6162
